<?xml version="1.0" encoding="UTF-8" standalone="no"?>
<svg
   xmlns:dc="http://purl.org/dc/elements/1.1/"
   xmlns:cc="http://creativecommons.org/ns#"
   xmlns:rdf="http://www.w3.org/1999/02/22-rdf-syntax-ns#"
   xmlns:svg="http://www.w3.org/2000/svg"
   xmlns="http://www.w3.org/2000/svg"
   xmlns:sodipodi="http://sodipodi.sourceforge.net/DTD/sodipodi-0.dtd"
   xmlns:inkscape="http://www.inkscape.org/namespaces/inkscape"
   height="512px"
   id="Layer_1"
   style="enable-background:new 0 0 512 512;"
   version="1.1"
   viewBox="0 0 512 512"
   width="512px"
   xml:space="preserve"
   inkscape:version="0.91 r13725"
   sodipodi:docname="bus.svg"><metadata
     id="metadata13"><rdf:RDF><cc:Work
         rdf:about=""><dc:format>image/svg+xml</dc:format><dc:type
           rdf:resource="http://purl.org/dc/dcmitype/StillImage" /></cc:Work></rdf:RDF></metadata><defs
     id="defs11" /><sodipodi:namedview
     pagecolor="#ffffff"
     bordercolor="#666666"
     borderopacity="1"
     objecttolerance="10"
     gridtolerance="10"
     guidetolerance="10"
     inkscape:pageopacity="0"
     inkscape:pageshadow="2"
     inkscape:window-width="1019"
     inkscape:window-height="791"
     id="namedview9"
     showgrid="false"
     inkscape:zoom="0.4609375"
     inkscape:cx="256"
     inkscape:cy="256"
     inkscape:window-x="0"
     inkscape:window-y="0"
     inkscape:window-maximized="0"
     inkscape:current-layer="Layer_1" /><g
     id="g3"><path
       d="M336.4,292.9c-21.2,1.5-49.7,2.4-80.2,2.4c-30.5,0-58.9-0.8-80.2-2.4c-17.3-1.2-27.3-2.7-33.3-4.5   c0.6,25.8,1.8,51.7,3.5,78c0,4.7,1.8,9.3,5.3,12.9c1.2,1.2,2.5,1.8,3.9,2.1v25.4c0,5.3,4.3,9.6,9.6,9.6h27c5.3,0,9.6-4.3,9.6-9.6   v-25.4h108.4v25.4c0,5.3,4.3,9.6,9.6,9.6h27c5.3,0,9.6-4.3,9.6-9.6v-25.4c1.4-0.3,2.7-0.9,3.9-2.1c3.5-3.6,5.3-8.2,5.3-12.9   c1.8-26.3,2.9-52.2,3.5-77.9C363.3,290.2,353.3,291.7,336.4,292.9z M213.7,345.5c-0.1,5.4-4.2,9.3-9.1,9   c-10.4-0.5-15.3-0.9-26.2-1.7c-5.1-0.4-10.3-3.8-10.9-9.3c-0.3-2.2-0.4-3.4-0.6-5.8c-0.4-5.8,4.2-9.9,9.6-9.6   c11.2,0.8,16.8,1.1,28.1,1.6c5.3,0.2,9.4,4.7,9.3,10.2C213.8,342.2,213.7,343.3,213.7,345.5z M345.4,342.4   c-0.3,5.3-5.7,10-10.9,10.4c-11,0.8-16.1,1.1-26.8,1.7c-5.1,0.3-9.2-3.9-9.3-9.2c0-2.2-0.1-3.3-0.1-5.5c-0.2-5.3,3.9-9.8,9.2-10   c11.2-0.5,16.9-0.8,28.1-1.6c5.3-0.4,10,3.6,10,8.9C345.6,339.2,345.6,340.3,345.4,342.4z"
       id="path5" /><path
       d="M398.8,135.7h-7.1c-5,0-9.1,3.9-9.6,8.8h-15.5c-0.3-5.5-0.6-11-1-16.6v-1.6c-41.4-41.1-178.1-41.1-219.4,0v1.6   c-0.4,5.6-0.7,11.1-1,16.6h-15.5c-0.4-4.9-4.5-8.8-9.6-8.8h-7.1c-5.3,0-9.6,4.3-9.6,9.6v50.8c0,5.3,4.3,9.6,9.6,9.6h7.1   c5.3,0,9.6-4.3,9.6-9.6v-44.4h15c-2.3,41.9-3,83-2.3,124.4c0.6,0.4,1.2,0.9,1.5,1.5c18.2,9.2,206,9.2,224.2,0   c0.3-0.5,0.7-0.9,1.2-1.3c0.7-41.4-0.1-82.6-2.3-124.7h15v44.4c0,5.3,4.3,9.6,9.6,9.6h7.1c5.3,0,9.6-4.3,9.6-9.6v-50.8   C408.4,140.1,404.1,135.7,398.8,135.7z M251.6,262l-71,1.2l43.9-48.1v26c0,2,1.6,3.6,3.6,3.6s3.6-1.6,3.6-3.6v-70.3   c0-2-1.6-3.6-3.6-3.6s-3.6,1.6-3.6,3.6v38.9l-55.3,53.6l-14.9,0.2V145.4c0-5.3,4.3-9.6,9.6-9.6h87.7V262z M359.6,264l-8.5-1.8   c-4.8-4.5-11.9-7.7-20-9.8l-44-42.7v-38.9c0-2-1.6-3.6-3.6-3.6c-2,0-3.6,1.6-3.6,3.6v70.3c0,2,1.6,3.6,3.6,3.6c2,0,3.6-1.6,3.6-3.6   v-26l32.1,35.2c-19.5-2.1-41.2,1.6-52,11.5l-4.9,0.1V135.7H350c5.3,0,9.6,4.3,9.6,9.6V264z"
       id="path7" /></g><path
     style="fill:#ffffff"
     d="m 164.15482,280.27602 c -8.15552,-1.00338 -16.35977,-2.41203 -18.23165,-3.13034 -3.02309,-1.16007 -3.26525,-8.33013 -2.16698,-64.16144 l 1.23644,-62.85543 -8.49631,0 -8.49632,0 0,24.51526 c 0,26.94453 -1.11506,29.72203 -11.9322,29.72203 -3.69899,0 -7.89695,-1.17152 -9.32882,-2.60339 -3.61451,-3.61451 -3.61451,-58.43294 0,-62.04746 1.43187,-1.43186 6.24743,-2.60339 10.70126,-2.60339 6.1925,0 8.42191,1.02094 9.47501,4.33899 1.06099,3.34287 3.28252,4.33898 9.6768,4.33898 8.98041,0 10.93337,-2.33711 10.93337,-13.08398 0,-7.6587 9.02132,-15.08776 27.38031,-22.54768 43.18917,-17.549335 118.93974,-17.573563 162.06097,-0.0518 20.33753,8.26388 27.13353,14.44372 27.92628,25.39427 0.65925,9.10663 0.76137,9.21143 9.60463,9.85782 7.48511,0.54711 9.12748,-0.0701 10.10197,-3.79661 0.92201,-3.52576 2.91803,-4.44995 9.61087,-4.44995 4.64595,0 9.6187,1.17153 11.05057,2.60339 3.28699,3.28701 3.58942,54.41573 0.35757,60.45449 -2.32456,4.34348 -13.55515,5.80732 -18.83136,2.45456 -1.75451,-1.11489 -2.84316,-9.99444 -3.25423,-26.54305 l -0.61775,-24.86769 -8.14505,-0.6739 -8.14507,-0.6739 0.55185,63.48215 0.55183,63.48215 -7.59322,1.97454 c -9.93251,2.58285 -176.76587,3.83543 -195.98077,1.47142 z m 28.7744,-38.181 c 13.21096,-12.65927 24.01993,-22.34537 24.01993,-21.52469 0,0.82069 -8.05423,10.26182 -17.8983,20.9803 -9.84407,10.71848 -18.2734,20.55359 -18.73184,21.8558 -0.56164,1.59534 1.91522,1.9136 7.59322,0.97568 4.63471,-0.76559 20.87421,-1.40273 36.08777,-1.41586 l 27.66102,-0.0239 0,-64 0,-64 -46.21017,0 c -33.04859,0 -46.95167,0.7415 -48.81356,2.60339 -1.90433,1.90433 -2.60339,19.38079 -2.60339,65.08475 l 0,62.48135 7.43769,0 c 6.49387,0 10.48576,-2.92078 31.45763,-23.01684 z m 167.20637,-39.46451 c 0,-45.70396 -0.69905,-63.18042 -2.60339,-65.08475 -1.86563,-1.86563 -16.00603,-2.60339 -49.8983,-2.60339 l -47.29492,0 0,64 c 0,70.54026 -0.57396,67.98489 13.43532,59.81662 8.4439,-4.92332 32.74049,-9.69373 40.04042,-7.86156 2.80529,0.70408 5.10053,0.40413 5.10053,-0.66657 0,-1.0707 -6.47145,-8.93649 -14.381,-17.47954 -7.90955,-8.54305 -13.96046,-15.95335 -13.44647,-16.46735 0.514,-0.514 9.64984,7.82133 20.30187,18.52295 10.65204,10.70162 20.36396,19.48802 21.58207,19.52533 1.2181,0.0373 7.09608,2.46907 13.06218,5.40389 5.9661,2.93483 11.57966,5.34498 12.47457,5.35589 0.89492,0.0109 1.62712,-28.09678 1.62712,-62.46152 z"
     id="path3341"
     inkscape:connector-curvature="0" /><path
     style="fill:#ffffff"
     d="m 158.88379,412.2804 c -1.58971,-1.58971 -2.6804,-8.54656 -2.6804,-17.0967 0,-11.4312 -0.85743,-15.19226 -4.14091,-18.16377 -3.39376,-3.07131 -4.37473,-7.92718 -5.43677,-26.91252 -0.71272,-12.74077 -1.80405,-31.58621 -2.42518,-41.87876 l -1.12933,-18.71372 10.36271,2.33306 c 13.9334,3.13697 191.0859,3.16477 204.96004,0.0322 l 10.19053,-2.3009 -0.86654,5.66461 c -0.47659,3.11554 -1.4142,21.28495 -2.08355,40.37648 -1.05292,30.03087 -1.79832,35.50456 -5.52741,40.59012 -3.08925,4.21295 -4.31037,9.32392 -4.31037,18.04093 0,19.3588 -1.32607,20.55539 -22.77966,20.55539 -21.61478,0 -22.77966,-1.10403 -22.77966,-21.58954 l 0,-13.19683 -54.77966,0.57963 -54.77966,0.57962 -1.08475,16.27119 -1.08475,16.27118 -18.47214,0.61939 c -12.51001,0.41947 -19.33727,-0.24575 -21.15254,-2.06102 z m 52.48667,-59.45909 c 4.45975,-4.45975 4.36097,-15.80762 -0.18128,-20.82675 -2.96474,-3.276 -6.94692,-3.96744 -22.84957,-3.96744 -17.75072,0 -19.3948,0.36686 -20.99185,4.6841 -4.77266,12.90173 2.57329,20.80843 20.3477,21.9009 7.14038,0.43888 14.62125,0.98255 16.62415,1.20817 2.00291,0.22562 5.17579,-1.12392 7.05085,-2.99898 z m 129.75647,-1.28504 c 5.03243,-2.58826 7.11009,-11.73571 4.14408,-18.24541 -2.25833,-4.95649 -3.44927,-5.26374 -20.40279,-5.26374 -21.36106,0 -27.64788,3.07237 -27.64788,13.51151 0,11.98388 4.50162,14.50036 23.49503,13.13411 9.15231,-0.65835 18.33751,-2.06976 20.41156,-3.13647 z"
     id="path3343"
     inkscape:connector-curvature="0" /></svg>